<?xml version="1.0" standalone="no"?>
<!DOCTYPE svg PUBLIC "-//W3C//DTD SVG 20010904//EN"
 "http://www.w3.org/TR/2001/REC-SVG-20010904/DTD/svg10.dtd">
<svg version="1.0" xmlns="http://www.w3.org/2000/svg"
 width="500.000000pt" height="120.000000pt" viewBox="0 0 500.000000 120.000000"
 preserveAspectRatio="xMidYMid meet">

<g transform="translate(0.000000,120.000000) scale(0.100000,-0.100000)"
fill="#000000" stroke="none">
<path d="M269 1166 c-73 -26 -115 -54 -150 -100 -67 -88 -75 -164 -22 -226 31
-37 63 -54 150 -81 164 -51 165 -133 2 -447 -92 -177 -98 -211 -47 -242 73
-44 257 -65 458 -52 141 9 177 22 238 83 75 77 125 223 103 305 -6 21 -33 75
-61 118 -27 44 -53 95 -56 113 -7 39 8 63 36 56 14 -4 20 0 20 10 0 21 -34 31
-60 17 -46 -24 -35 -101 27 -192 76 -112 86 -157 57 -260 -17 -59 -34 -77 -34
-34 0 13 -7 56 -16 95 -22 95 -89 198 -207 316 -49 50 -96 105 -104 124 -30
72 18 160 112 206 53 26 55 29 42 49 -23 34 -83 49 -146 37 -73 -15 -108 -14
-169 4 -54 17 -86 40 -76 57 4 5 22 16 40 24 19 8 34 19 34 24 0 14 -128 11
-171 -4z"/>
<path d="M1433 831 c-75 -25 -129 -67 -153 -115 -37 -77 -21 -134 60 -223 73
-80 65 -111 -36 -134 -31 -7 -58 -19 -61 -26 -5 -13 22 -72 60 -131 21 -32 24
-33 70 -28 95 10 214 93 238 164 15 47 13 105 -5 139 -8 15 -37 55 -65 88 -28
32 -51 66 -51 75 0 21 41 40 85 40 19 0 36 4 39 9 3 5 -10 43 -29 85 -34 72
-37 76 -68 76 -18 -1 -55 -9 -84 -19z"/>
<path d="M4160 831 l-55 -6 4 -55 c2 -30 6 -174 10 -320 l6 -265 95 0 95 0 3
132 c3 138 5 146 52 157 48 12 53 -1 51 -141 -1 -70 3 -134 8 -142 12 -19 150
-28 180 -12 22 12 22 15 19 196 -3 180 -3 184 -28 210 -14 15 -37 33 -52 41
-39 20 -125 17 -177 -6 -24 -11 -45 -20 -47 -20 -2 0 -4 54 -4 120 l0 120 -52
-2 c-29 -1 -78 -4 -108 -7z"/>
<path d="M1895 637 c-90 -44 -134 -118 -135 -226 0 -160 110 -248 299 -239 97
4 173 36 179 74 4 29 -55 107 -76 101 -9 -3 -37 -13 -61 -22 -48 -17 -112 -13
-130 9 -9 10 17 15 121 23 119 10 134 13 151 34 42 53 -10 180 -97 234 -42 25
-61 30 -125 33 -64 2 -84 -1 -126 -21z m129 -127 c37 -14 32 -28 -11 -35 -21
-4 -46 -9 -55 -12 -24 -6 -23 12 2 37 23 23 29 24 64 10z"/>
<path d="M2489 612 c-73 -38 -112 -100 -117 -187 -5 -78 10 -126 57 -178 67
-75 175 -99 253 -57 37 20 37 20 48 0 12 -22 65 -26 145 -12 l40 7 0 185 c0
102 4 197 9 212 10 34 -9 45 -98 54 -57 6 -69 4 -80 -11 -12 -16 -15 -16 -44
-1 -52 27 -149 21 -213 -12z m215 -161 c37 -37 15 -102 -39 -115 -53 -13 -113
39 -101 89 13 52 98 68 140 26z"/>
<path d="M3147 630 c-72 -9 -80 -16 -66 -60 6 -19 13 -111 14 -205 2 -93 4
-173 4 -177 2 -11 108 -21 156 -14 l45 7 0 124 0 124 34 6 c19 4 43 4 53 1 38
-12 51 13 55 104 l3 85 -42 3 c-27 2 -55 -4 -81 -17 l-40 -20 -6 24 c-7 28
-19 29 -129 15z"/>
<path d="M3705 617 c-92 -45 -137 -116 -136 -218 0 -98 57 -177 155 -214 59
-23 191 -17 231 9 29 19 29 26 4 119 -10 39 -11 39 -47 31 -90 -19 -142 3
-142 61 0 52 30 70 107 68 l64 -3 15 37 c9 20 18 51 21 68 4 26 1 33 -24 44
-15 8 -66 16 -113 18 -74 4 -91 1 -135 -20z"/>
</g>
</svg>
